<?xml version="1.0" encoding="utf-8"?>
<!-- Generator: Adobe Illustrator 25.2.3, SVG Export Plug-In . SVG Version: 6.00 Build 0)  -->
<svg version="1.1" id="Layer_1" xmlns="http://www.w3.org/2000/svg" xmlns:xlink="http://www.w3.org/1999/xlink" x="0px" y="0px"
	 viewBox="0 0 189 15" enable-background="new 0 0 189 15" xml:space="preserve">
<path id="TheRarities" d="M14.8,14v-0.4h-2.1c-1.6,0-2.5-0.8-2.5-2.5l0,0V0.7h0.7c1.6,0,2.9,0.7,4,2.1
	c0.9,1.2,1.4,2.7,1.6,4.5l0,0l0.3,0V0.4h-16v6.9h0.3C1.2,6.6,1.3,6,1.4,5.7C1.6,4.6,2,3.8,2.5,3c1-1.5,2.3-2.3,4-2.3l0,0h0.9v10.4
	c0,1.7-0.8,2.5-2.5,2.5l0,0h-2V14H14.8z M26.7,14v-0.4h-0.3c-0.8,0-1.4-0.2-1.9-0.6s-0.6-1-0.6-1.9l0,0V7.3h7.3v3.9
	c0,0.8-0.2,1.5-0.6,1.9s-1,0.6-1.9,0.6l0,0h-0.3V14H37v-0.4h-0.4c-0.8,0-1.4-0.2-1.9-0.6c-0.4-0.4-0.6-1-0.6-1.9l0,0V3.2
	c0-0.8,0.2-1.5,0.6-1.9s1-0.6,1.9-0.6l0,0H37V0.4h-8.5v0.4h0.3c0.8,0,1.5,0.2,1.9,0.6s0.6,1,0.6,1.9l0,0v3.7h-7.3V3.2
	c0-0.8,0.2-1.5,0.6-1.9s1-0.6,1.9-0.6l0,0h0.3V0.4h-8.6v0.4h0.5c0.8,0,1.4,0.2,1.8,0.5c0.2,0.2,0.4,0.4,0.5,0.6S21,2.5,21,2.9
	c0,0.3,0.1,1,0.1,2.1s0.1,2.1,0.1,2.9c0,0.8,0,1.4,0,1.9s-0.1,0.9-0.2,1.3c0,0.8-0.2,1.5-0.6,1.9s-1,0.6-1.9,0.6l0,0h-0.4V14H26.7z
	 M53,14V8.4h-0.4c-0.2,0.8-0.4,1.4-0.6,1.9c-0.4,0.8-0.8,1.5-1.5,2c-0.4,0.3-0.8,0.6-1.2,0.8s-0.9,0.3-1.4,0.4s-1.1,0.1-1.8,0.1l0,0
	h-2.2V7.5h0.6c1.1,0,1.9,0.4,2.5,1.1c0.2,0.3,0.4,0.5,0.5,0.8s0.3,0.6,0.4,1s0.2,0.9,0.3,1.4l0,0h0.3V2.9h-0.3
	c-0.1,0.5-0.1,1-0.2,1.2c-0.2,0.7-0.4,1.2-0.7,1.7c-0.6,0.9-1.5,1.4-2.6,1.4l0,0h-0.7V0.7h2.7c1.1,0,2.1,0.2,2.9,0.5
	c0.5,0.2,0.9,0.6,1.3,1c0.3,0.4,0.6,0.8,0.8,1.3s0.5,1.2,0.7,2.1l0,0h0.3V0.4H38.2v0.4h0.4c0.8,0,1.5,0.2,1.9,0.6s0.6,1,0.6,1.9l0,0
	v7.9c0,1.7-0.8,2.5-2.5,2.5l0,0h-0.4l0,0.4H53z M70.1,14v-0.4h-0.4c-0.8,0-1.5-0.2-1.9-0.6s-0.6-1-0.6-1.9l0,0V7.3h3.1L75,14h5.1
	v-0.4h-0.4c-0.8,0-1.4-0.1-1.8-0.4c-0.2-0.2-0.5-0.4-0.8-0.9s-0.7-0.9-1-1.4c-0.1-0.2-0.3-0.4-0.4-0.5s-0.3-0.4-0.5-0.7l0,0
	l-0.3-0.5c-0.5-0.1-1-0.3-1.5-0.4s-0.9-0.3-1.3-0.6s-0.9-0.5-1.4-0.8l0,0v0c1.1,0,1.8,0,2.4-0.1c0.7-0.1,1.4-0.2,2-0.3
	s1.2-0.4,1.6-0.6c1.1-0.6,1.6-1.5,1.6-2.5c0-0.4-0.1-0.8-0.2-1.1s-0.4-0.7-0.7-1c-0.5-0.5-1.1-0.8-2-1.1s-2-0.3-3.4-0.3l0,0H61.5
	v0.4h0.4c0.8,0,1.5,0.2,1.9,0.6s0.6,1,0.6,1.9l0,0v7.9c0,0.8-0.2,1.5-0.6,1.9s-1,0.6-1.9,0.6l0,0h-0.4V14H70.1z M71.1,7h-3.9V0.7
	h3.9c2.6,0,4,1,4,3.1c0,0.7-0.1,1.3-0.4,1.8s-0.7,0.8-1.3,1S72,7,71.1,7L71.1,7z M86.4,14v-0.4c-0.3,0-0.5,0-0.6-0.1
	s-0.3-0.1-0.5-0.2c-0.3-0.1-0.5-0.4-0.6-0.7s-0.2-0.6-0.2-0.9c0-0.4,0.1-0.7,0.2-1l0,0l0.4-1h5.8l0.2,0.5c0,0.1,0.1,0.2,0.1,0.3
	s0.1,0.2,0.1,0.2c0.3,0.7,0.5,1.2,0.6,1.4s0.1,0.5,0.1,0.7c0,0.3-0.1,0.5-0.4,0.6s-0.6,0.2-1.1,0.2l0,0h-1V14h7.9v-0.4h-0.4
	c-0.4,0-0.7-0.1-1-0.2s-0.5-0.3-0.7-0.5S95,12.4,94.8,12l0,0L89.3,0.1H89l-4.3,9.8c-0.7,1.5-1.3,2.5-2,3c-0.3,0.2-0.6,0.4-0.8,0.5
	s-0.6,0.2-1,0.2l0,0V14H86.4z M90.7,9.4h-5.4l2.7-6.1L90.7,9.4z M107.6,14v-0.4h-0.4c-0.8,0-1.5-0.2-1.9-0.6s-0.6-1-0.6-1.9l0,0V7.3
	h3.1l4.7,6.7h5.1v-0.4h-0.4c-0.8,0-1.4-0.1-1.8-0.4c-0.2-0.2-0.5-0.4-0.8-0.9s-0.7-0.9-1-1.4c-0.1-0.2-0.3-0.4-0.4-0.5
	s-0.3-0.4-0.5-0.7l0,0l-0.3-0.5c-0.5-0.1-1-0.3-1.5-0.4s-0.9-0.3-1.3-0.6s-0.9-0.5-1.4-0.8l0,0v0c1.1,0,1.8,0,2.4-0.1
	c0.7-0.1,1.4-0.2,2-0.3s1.2-0.4,1.6-0.6c1.1-0.6,1.6-1.5,1.6-2.5c0-0.4-0.1-0.8-0.2-1.1s-0.4-0.7-0.7-1c-0.5-0.5-1.1-0.8-2-1.1
	s-2-0.3-3.4-0.3l0,0H99v0.4h0.4c0.8,0,1.5,0.2,1.9,0.6s0.6,1,0.6,1.9l0,0v7.9c0,0.8-0.2,1.5-0.6,1.9s-1,0.6-1.9,0.6l0,0H99V14H107.6
	z M108.6,7h-3.9V0.7h3.9c2.6,0,4,1,4,3.1c0,0.7-0.1,1.3-0.4,1.8s-0.7,0.8-1.3,1S109.5,7,108.6,7L108.6,7z M127.7,14v-0.4h-0.4
	c-0.8,0-1.5-0.2-1.9-0.6s-0.6-1-0.6-1.9l0,0V3.2c0-0.8,0.2-1.5,0.6-1.9s1-0.6,1.9-0.6l0,0h0.4V0.4h-8.6v0.4h0.4
	c0.8,0,1.4,0.2,1.8,0.5c0.2,0.2,0.4,0.4,0.5,0.6s0.2,0.6,0.2,1.1c0.1,1.1,0.2,2.8,0.2,5c0,0.5,0,1,0,1.3s0,0.7-0.1,0.9
	s-0.1,0.6-0.1,0.9c0,0.8-0.2,1.5-0.6,1.9s-1,0.6-1.9,0.6l0,0h-0.4V14H127.7z M143.3,14v-0.4h-2.1c-1.6,0-2.5-0.8-2.5-2.5l0,0V0.7
	h0.7c1.6,0,2.9,0.7,4,2.1c0.9,1.2,1.4,2.7,1.6,4.5l0,0l0.3,0V0.4h-16v6.9h0.3c0.1-0.7,0.2-1.2,0.3-1.6c0.3-1,0.6-1.9,1.1-2.7
	c1-1.5,2.3-2.3,4-2.3l0,0h0.9v10.4c0,1.7-0.8,2.5-2.5,2.5l0,0h-2V14H143.3z M155.8,14v-0.4h-0.4c-0.8,0-1.5-0.2-1.9-0.6
	s-0.6-1-0.6-1.9l0,0V3.2c0-0.8,0.2-1.5,0.6-1.9s1-0.6,1.9-0.6l0,0h0.4V0.4h-8.6v0.4h0.4c0.8,0,1.4,0.2,1.8,0.5
	c0.2,0.2,0.4,0.4,0.5,0.6s0.2,0.6,0.2,1.1c0.1,1.1,0.2,2.8,0.2,5c0,0.5,0,1,0,1.3s0,0.7-0.1,0.9s-0.1,0.6-0.1,0.9
	c0,0.8-0.2,1.5-0.6,1.9s-1,0.6-1.9,0.6l0,0h-0.4V14H155.8z M172.2,14V8.4h-0.4c-0.2,0.8-0.4,1.4-0.6,1.9c-0.4,0.8-0.8,1.5-1.5,2
	c-0.4,0.3-0.8,0.6-1.2,0.8s-0.9,0.3-1.4,0.4s-1.1,0.1-1.8,0.1l0,0h-2.2V7.5h0.6c1.1,0,1.9,0.4,2.5,1.1c0.2,0.3,0.4,0.5,0.5,0.8
	s0.3,0.6,0.4,1s0.2,0.9,0.3,1.4l0,0h0.3V2.9h-0.3c-0.1,0.5-0.1,1-0.2,1.2c-0.2,0.7-0.4,1.2-0.7,1.7c-0.6,0.9-1.5,1.4-2.6,1.4l0,0
	h-0.7V0.7h2.7c1.1,0,2.1,0.2,2.9,0.5c0.5,0.2,0.9,0.6,1.3,1c0.3,0.4,0.6,0.8,0.8,1.3s0.5,1.2,0.7,2.1l0,0h0.3V0.4h-14.5v0.4h0.4
	c0.8,0,1.5,0.2,1.9,0.6s0.6,1,0.6,1.9l0,0v7.9c0,1.7-0.8,2.5-2.5,2.5l0,0h-0.4l0,0.4H172.2z M182.7,14.2c0.9,0,1.7-0.1,2.4-0.4
	s1.3-0.6,1.8-1.1c0.4-0.4,0.7-0.8,0.9-1.2s0.3-0.9,0.3-1.4c0-0.5-0.1-0.9-0.3-1.3S187.4,8,187,7.7c-0.4-0.4-0.9-0.8-1.5-1
	s-1.5-0.5-2.8-0.9l0,0l-0.8-0.2l-0.5-0.1c-0.1,0-0.2-0.1-0.5-0.1c-0.9-0.2-1.5-0.4-2-0.5s-0.9-0.3-1.2-0.4s-0.5-0.3-0.7-0.5
	c-0.4-0.3-0.5-0.7-0.5-1.2c0-0.2,0.1-0.5,0.2-0.8s0.3-0.5,0.5-0.7c0.3-0.3,0.7-0.5,1.1-0.7s0.9-0.2,1.4-0.2c0.7,0,1.4,0.1,2.1,0.3
	s1.3,0.5,1.9,0.8s1,0.7,1.4,1.2c0.5,0.6,1,1.5,1.4,2.6l0,0h0.3V0.6h-0.3c-0.2,0.7-0.6,1.1-1.1,1.1c-0.2,0-0.6-0.1-1.1-0.4
	c-1.6-0.8-3.1-1.2-4.6-1.2c-1,0-1.9,0.2-2.7,0.5s-1.4,0.8-1.9,1.4s-0.7,1.3-0.7,2c0,0.6,0.2,1.2,0.6,1.7c0.3,0.4,0.6,0.7,1,0.9
	s0.9,0.5,1.5,0.7c0.6,0.2,1.6,0.5,3.2,1l0,0l1,0.3c0.8,0.2,1.4,0.4,1.9,0.6s0.8,0.3,1.1,0.5s0.5,0.3,0.7,0.5
	c0.4,0.4,0.6,0.8,0.6,1.3c0,0.5-0.1,0.9-0.4,1.3s-0.7,0.7-1.2,0.9s-1.1,0.3-1.7,0.3c-0.7,0-1.5-0.1-2.2-0.4s-1.5-0.6-2.3-1.1
	s-1.3-1-1.8-1.5c-0.8-0.9-1.2-1.9-1.4-3l0,0h-0.3v6.3h0.3c0.1-0.4,0.3-0.8,0.6-1s0.7-0.4,1.2-0.4c0.2,0,0.5,0,0.8,0.1
	s0.7,0.2,1.2,0.4c0.8,0.3,1.5,0.6,2,0.7S182.1,14.2,182.7,14.2z"/>
</svg>
