<?xml version="1.0" encoding="utf-8"?>
<!-- Generator: Adobe Illustrator 25.2.3, SVG Export Plug-In . SVG Version: 6.00 Build 0)  -->
<svg version="1.1" id="logo" xmlns="http://www.w3.org/2000/svg" xmlns:xlink="http://www.w3.org/1999/xlink" x="0px" y="0px"
	 viewBox="0 0 220.3 145.1" enable-background="new 0 0 220.3 145.1" xml:space="preserve">
<g>
	<g>
		<g>
			<polygon fill="#898A8D" points="162.7,93 162.2,92.5 182.2,72.5 162.2,52.6 162.7,52.1 183.1,72.5 			"/>
		</g>
		<g>
			<g>
				<path fill="#898A8D" d="M104.9,107.6H58.2V37.4h46.7V107.6z M58.8,107h45.4V38.1H58.8V107z"/>
			</g>
			<g>
				<path fill="#898A8D" d="M66.7,107.6h-8.3V45.1c0-1.7,1-5.1,4.2-5.1c3,0,4.1,2.9,4.1,4.8V107.6z M59,107H66V44.8
					c0-1.2-0.6-4.2-3.5-4.2c-2.7,0-3.6,3-3.6,4.5V107z"/>
			</g>
			<g>
				<path fill="#898A8D" d="M162.8,107.6h-46.7V37.4h46.7V107.6z M116.7,107h45.4V38.1h-45.4V107z"/>
			</g>
			<g>
				<rect x="127.2" y="43.1" fill="#898A8D" width="27.8" height="0.7"/>
			</g>
			<g>
				<g>
					<polygon fill="#898A8D" points="118.1,107.6 117.9,107 137.8,99.3 137.8,51.3 118.9,38 119.2,37.5 138.5,51 138.5,99.7 					
						"/>
				</g>
				<g>
					<path fill="#898A8D" d="M116.6,107.3H116V40.7c0-1.8,0.7-2.5,1.2-2.8c0.9-0.5,2.3-0.2,3.7,0.8l2.1,1.5l-0.1,0.2v64.9h-0.6V40.4
						c-0.3-0.2-0.8-0.6-1.7-1.2c-1.2-0.9-2.4-1.2-3.1-0.8c-0.6,0.3-0.9,1.1-0.9,2.3V107.3z"/>
				</g>
				<g>
					<path fill="#898A8D" d="M123.9,105.1h-0.6V45.1c0-0.7,0.1-1.6,0.8-2.1c0.6-0.4,1.4-0.4,2.4-0.1c1.6,0.6,2.7,2.3,2.7,4.3v56
						h-0.6v-56c0-1.8-0.9-3.2-2.3-3.7c-0.8-0.3-1.4-0.3-1.8,0c-0.5,0.4-0.6,1.2-0.6,1.6V105.1z"/>
				</g>
				<g>
					<path fill="#898A8D" d="M130.3,102.7h-0.6V49.6c0-1,0.1-2.3,0.9-2.9c0.4-0.3,0.8-0.3,1.4-0.1c2,0.8,2,4,2,4.1v50.6h-0.6V50.8
						c0,0,0-2.9-1.6-3.5c-0.3-0.1-0.6-0.1-0.8,0c-0.4,0.3-0.6,1.1-0.6,2.3V102.7z"/>
				</g>
				<g>
					<path fill="#898A8D" d="M135,100.9h-0.6V52.8c0-1.7,0.5-2.4,1-2.8c0.4-0.3,0.8-0.4,1.2-0.3c0.9,0.2,2,1,2,3.6v46.1h-0.6V53.4
						c0-1.7-0.5-2.8-1.5-3c-0.2-0.1-0.4,0-0.6,0.2c-0.3,0.2-0.7,0.8-0.7,2.3V100.9z"/>
				</g>
			</g>
			<g>
				<path fill="#898A8D" d="M162.8,107.6h-8.3V44.8c0-1.9,1.1-4.8,4.1-4.8c3.2,0,4.2,3.5,4.2,5.1V107.6z M155.1,107h7.1V45.1
					c0-1.5-0.9-4.5-3.6-4.5c-2.8,0-3.5,3-3.5,4.2V107z"/>
			</g>
			<g>
				<rect x="138.2" y="99.2" fill="#898A8D" width="16.6" height="0.6"/>
			</g>
			<g>
				<rect x="137.8" y="15.5" fill="#898A8D" width="0.6" height="114.4"/>
			</g>
			<g>
				<rect x="138.2" y="56.4" fill="#898A8D" width="16.6" height="0.6"/>
			</g>
			<g>
				<g>
					<rect x="65.9" y="43.1" fill="#898A8D" width="27.8" height="0.7"/>
				</g>
				<g>
					<g>
						<polygon fill="#898A8D" points="102.7,107.6 82.4,99.7 82.4,51 82.5,50.9 101.6,37.5 102,38 83,51.3 83,99.3 103,107 						
							"/>
					</g>
					<g>
						<path fill="#898A8D" d="M104.9,107.3h-0.6V40.7c0-1.2-0.3-2-0.9-2.3c-0.7-0.4-1.8-0.1-3.1,0.8c-0.9,0.6-1.4,1-1.7,1.2v64.9
							h-0.6V40.4l-0.2-0.2l2.2-1.5c1.5-1,2.8-1.3,3.7-0.8c0.6,0.3,1.2,1,1.2,2.8V107.3z"/>
					</g>
					<g>
						<path fill="#898A8D" d="M97.6,105.1h-0.6V45.1c0-0.5-0.1-1.3-0.6-1.6c-0.4-0.3-1-0.3-1.8,0c-1.7,0.6-2.3,2.3-2.3,3.7v56h-0.6
							v-56c0-2,1-3.7,2.7-4.3c1-0.4,1.8-0.3,2.4,0.1c0.7,0.5,0.8,1.4,0.8,2.1V105.1z"/>
					</g>
					<g>
						<path fill="#898A8D" d="M91.2,102.7h-0.6V49.6c0-1.3-0.2-2.1-0.6-2.3c-0.2-0.1-0.5-0.1-0.8,0c-1.6,0.6-1.6,3.5-1.6,3.5v50.6
							H87V50.8c0-0.1,0-3.4,2-4.1c0.5-0.2,1-0.2,1.4,0.1c0.8,0.5,0.9,1.9,0.9,2.9V102.7z"/>
					</g>
					<g>
						<path fill="#898A8D" d="M86.5,100.9h-0.6V52.8c0-1.5-0.5-2.1-0.7-2.3c-0.2-0.2-0.4-0.2-0.6-0.2c-1,0.3-1.5,1.3-1.5,3v46.1
							h-0.6V53.4c0-2.6,1.1-3.4,2-3.6c0.4-0.1,0.8,0,1.2,0.3c0.4,0.3,1,1.1,1,2.8V100.9z"/>
					</g>
				</g>
				<g>
					<rect x="66.1" y="99.2" fill="#898A8D" width="16.6" height="0.6"/>
				</g>
				<g>
					<rect x="82.4" y="15.5" fill="#898A8D" width="0.6" height="114.4"/>
				</g>
				<g>
					<rect x="66.1" y="56.4" fill="#898A8D" width="16.6" height="0.6"/>
				</g>
			</g>
			<g>
				<path fill="#898A8D" d="M114.9,107.6h-8.7V37.4h8.7V107.6z M106.8,107h7.5V38.1h-7.5V107z"/>
			</g>
			<g>
				<path fill="#898A8D" d="M113.1,105.9H108V39.2h5.2V105.9z M108.5,105.3h4.1V39.7h-4.1V105.3z"/>
			</g>
			<g>
				<rect x="108.2" y="41.7" fill="#898A8D" width="4.6" height="0.5"/>
			</g>
			<g>
				<rect x="108.3" y="78.4" fill="#898A8D" width="4.5" height="0.5"/>
			</g>
			<g>
				<rect x="108.3" y="76.7" fill="#898A8D" width="4.5" height="0.5"/>
			</g>
			<g>
				<rect x="108.2" y="102.4" fill="#898A8D" width="4.6" height="0.5"/>
			</g>
			<g>
				<polygon fill="#898A8D" points="58.3,92.8 38,72.5 58.5,52.1 58.9,52.5 38.9,72.5 58.7,92.4 				"/>
			</g>
			<g>
				<polygon fill="#898A8D" points="110.6,145.1 73,107.5 73.5,107.1 110.6,144.2 147.7,107.1 148.1,107.5 				"/>
			</g>
			<g>
				<polygon fill="#898A8D" points="73.4,38 73,37.6 110.6,0 110.8,0.2 148.1,37.5 147.6,38 110.6,0.9 				"/>
			</g>
		</g>
		<g>
			<path fill="#898A8D" d="M110.6,136.3c-35.1,0-63.7-28.6-63.7-63.7S75.4,8.8,110.6,8.8s63.7,28.6,63.7,63.7
				S145.7,136.3,110.6,136.3z M110.6,9.8c-34.6,0-62.8,28.2-62.8,62.8s28.2,62.8,62.8,62.8s62.8-28.2,62.8-62.8S145.2,9.8,110.6,9.8
				z"/>
		</g>
	</g>
	<g>
		<path fill="#FFFFFF" d="M67.1,91.3h3.6c2.2,0,3.6,1.2,3.6,3.1v0c0,2.1-1.7,3.1-3.8,3.1h-2.3v3.4h-1.1V91.3z M70.6,96.6
			c1.6,0,2.6-0.9,2.6-2.1v0c0-1.4-1-2.1-2.6-2.1h-2.4v4.2H70.6z"/>
		<path fill="#FFFFFF" d="M81.1,91.3h4.1c1.2,0,2.1,0.4,2.7,1c0.5,0.5,0.7,1.1,0.7,1.9v0c0,1.6-1.1,2.5-2.6,2.8l3,3.9h-1.3L85,97.2
			h-2.7v3.7h-1.1V91.3z M85.2,96.2c1.4,0,2.5-0.7,2.5-2v0c0-1.2-0.9-1.9-2.5-1.9h-3v3.9H85.2z"/>
		<path fill="#FFFFFF" d="M96,91.3h1.1v9.6H96V91.3z"/>
		<path fill="#FFFFFF" d="M103.9,91.3h1.2l3.4,8.3l3.4-8.3h1.2L109,101h-1L103.9,91.3z"/>
		<path fill="#FFFFFF" d="M122,91.3h1l4.4,9.7h-1.2l-1.1-2.5h-5.2l-1.1,2.5h-1.1L122,91.3z M124.7,97.4l-2.2-4.9l-2.2,4.9H124.7z"/>
		<path fill="#FFFFFF" d="M135.4,92.3h-3.2v-1h7.6v1h-3.2v8.6h-1.1V92.3z"/>
		<path fill="#FFFFFF" d="M146.6,91.3h7v1h-5.9v3.3h5.3v1h-5.3v3.4h5.9v1h-7V91.3z"/>
	</g>
	<g>
		<path fill="#FFFFFF" d="M31.4,55.5c0,0.2,0,0.4,0,0.6c-0.1,0.1-0.1,0.1-0.2,0.1c-0.4,0.1-0.7,0.1-1.1,0.2c-0.2,0-0.4,0.1-0.6,0.1
			c-1.1,0.3-1.6,1-1.8,2c-0.2,1.3-0.1,2.5-0.1,3.8c0,1.2,0.1,2.3,0.1,3.5c0,1,0,1.9,0,2.9c0.2,2.8,0.1,5.7,0.2,8.5
			c0,0.3,0.1,0.7,0.1,1c0.1,0.5,0.4,0.9,0.9,1.1c0.5,0.2,1.1,0.3,1.6,0.4c0.2,0,0.5,0.1,0.7,0.1c0.2,0.3,0.1,0.5,0,0.8
			c-0.1,0-0.2,0.1-0.3,0.1c-3.1,0-6.2,0-9.3,0c-0.1,0-0.2,0-0.3-0.1c-0.2-0.3-0.1-0.5-0.1-0.8c0.5-0.1,1.1-0.2,1.6-0.2
			c0.1,0,0.2,0,0.4-0.1c1-0.2,1.4-0.7,1.4-1.8c0-1.2,0-2.3,0-3.5c0-1.6,0-3.2-0.1-4.8c0-2.6-0.1-5.2-0.2-7.9c0-0.5-0.1-1-0.1-1.7
			c-0.2,0.3-0.3,0.5-0.3,0.6c-2.3,4.9-4.6,9.7-6.8,14.6c-0.7,1.5-1.3,2.9-1.9,4.4c-0.1,0.2-0.1,0.3-0.2,0.5
			c-0.1,0.2-0.2,0.3-0.4,0.3c-0.2,0-0.3-0.1-0.4-0.2c-0.2-0.4-0.3-0.7-0.5-1.1c-0.6-1.5-1.2-3-1.8-4.4c-0.1-0.3-0.2-0.5-0.3-0.8
			c-2.2-4.4-4.1-8.9-6.1-13.4c-0.1-0.2-0.2-0.5-0.4-0.7C5,59.8,5,60.1,5,60.4c0,1.9,0,3.9-0.1,5.8c0,2.5-0.1,5-0.2,7.5
			c0,0.8,0,1.7,0,2.5c0,0.5,0.1,0.9,0.2,1.4c0.3,1.3,0.9,1.8,2.3,2.1c0.3,0.1,0.6,0.1,0.9,0.1c0.2,0.3,0.1,0.5,0.1,0.7
			c-0.1,0.1-0.1,0.1-0.1,0.1c0,0-0.1,0-0.1,0c-0.2,0-0.3,0-0.5,0c-2.4,0-4.8,0-7.2,0c-0.1,0-0.1,0-0.2,0c0,0-0.1,0-0.1-0.1
			c-0.2-0.2-0.2-0.4,0-0.7c0.1,0,0.1-0.1,0.1-0.1c0.3-0.1,0.7-0.2,1-0.3c0.9-0.3,1.5-0.9,1.8-1.8c0.1-0.3,0.2-0.7,0.2-1
			c0.1-0.5,0.1-1.1,0.2-1.7c0.1-1.5,0.1-3,0.2-4.5c0.1-2.3,0.2-4.6,0.2-6.9c0-0.8,0.1-1.7,0.1-2.5c0-0.9-0.1-1.7-0.1-2.6
			c0-0.2-0.1-0.4-0.1-0.5C3.5,57,2.9,56.5,2,56.4c-0.5-0.1-1-0.1-1.6-0.2c0-0.2-0.1-0.3-0.1-0.4c0-0.2,0.1-0.3,0.3-0.4
			c0.1,0,0.2,0,0.4,0c1.8,0,3.6,0,5.4,0c0.2,0,0.3,0,0.4,0c0.3,0.2,0.4,0.5,0.5,0.8c1,2.2,1.9,4.3,2.9,6.5c1.6,3.6,3.2,7.3,4.8,10.9
			c0.2,0.4,0.4,0.9,0.6,1.4c0.5-0.7,0.7-1.4,1-2c0.3-0.6,0.6-1.3,0.9-1.9c0.3-0.7,0.6-1.3,1-2c0.3-0.6,0.6-1.3,0.9-1.9
			c0.3-0.7,0.6-1.3,1-2c0.3-0.6,0.6-1.3,0.9-1.9c0.3-0.7,0.6-1.3,1-2c0.3-0.6,0.6-1.3,0.9-1.9c0.3-0.7,0.6-1.3,1-2
			c0.3-0.6,0.6-1.3,0.9-1.9c0.1,0,0.2-0.1,0.3-0.1c1.9,0,3.7,0,5.6,0C31.2,55.4,31.3,55.4,31.4,55.5z"/>
		<path fill="#FFFFFF" d="M106.2,68.2c-0.2,0-0.3-0.1-0.5-0.1c-2.3-0.1-14.5,0-15.2,0.1c0,0.2-0.1,0.3-0.1,0.5c0,2.4,0,4.9,0,7.3
			c0,0.6,0.1,1.2,0.1,1.8c0.1,1.2,0.7,1.7,1.6,1.8c0.3,0.1,0.7,0.1,1,0.1c0.3,0,0.6,0,1,0.1c0,0.3,0,0.5,0,0.7
			c-0.1,0-0.1,0.1-0.2,0.1c-0.2,0-0.3,0-0.5,0c-3,0-6.1,0-9.1,0c-0.2,0-0.4,0-0.5,0c-0.3-0.2-0.1-0.5-0.1-0.7c0.1,0,0.2-0.1,0.2-0.1
			c0.2,0,0.5,0,0.7,0c0.3,0,0.5-0.1,0.8-0.1c0.8-0.2,1.2-0.7,1.3-1.4c0.1-0.6,0.2-1.2,0.2-1.7c0-1.4,0-2.7,0-4.1c0-4.2,0-8.3,0-12.5
			c0-0.6,0-1.2-0.1-1.8c-0.1-0.9-0.6-1.5-1.6-1.7c-0.4-0.1-0.8-0.1-1.3-0.2c0-0.2,0-0.4-0.1-0.6c0.2,0,0.4-0.1,0.6-0.1
			c1.1,0,2.2,0,3.2,0c1.8,0,3.6,0,5.4,0c0.3,0,0.6,0,0.9,0c0.2,0.2,0.2,0.5,0.1,0.7c-0.1,0-0.1,0.1-0.2,0.1
			c-0.5,0.1-1.1,0.1-1.7,0.2c-0.8,0.1-1.4,0.5-1.6,1.7c-0.1,0.6-0.1,1.2-0.1,1.8c0,2,0,4,0,6c0,0.2,0,0.4,0,0.7
			c0.4,0.2,0.7,0.1,1,0.1c4.6,0,9.1,0,13.7,0c0.3,0,0.6,0,1,0c0-0.2,0.1-0.4,0.1-0.6c0-2.3,0-4.7,0-7c0-0.4-0.1-0.9-0.2-1.3
			c-0.2-0.9-0.7-1.3-1.6-1.5c-0.5-0.1-1-0.1-1.5-0.2c-0.1,0-0.2,0-0.4-0.1c0-0.1-0.1-0.2-0.1-0.4c0-0.1,0-0.2,0-0.3
			c0.1,0,0.1-0.1,0.2-0.1c0.2,0,0.4,0,0.6,0c2.9,0,5.9,0,8.8,0c0.2,0,0.4,0,0.6,0c0.2,0.3,0.2,0.5,0.1,0.7c-0.5,0.1-1,0.1-1.5,0.2
			c-0.8,0.1-1.2,0.6-1.4,1.3c-0.1,0.2-0.1,0.5-0.1,0.7c0,0.4,0,0.7,0,1.1c0,5.6,0,11.3,0,16.9c0,0.4,0,0.8,0,1.2
			c0,0.3,0.1,0.6,0.2,0.9c0.2,0.5,0.5,0.8,1,1c0.3,0.1,0.6,0.1,0.9,0.2c0.3,0,0.5,0,0.8,0.1c0.2,0.3,0.2,0.5,0,0.8
			c-0.1,0-0.2,0.1-0.3,0.1c-3.2,0-6.5,0-9.7,0c-0.1,0-0.2,0-0.3-0.1c-0.2-0.2-0.1-0.5,0-0.8c0.2,0,0.4-0.1,0.6-0.1
			c0.6,0,1.1,0,1.7-0.2c0.8-0.2,1.2-0.7,1.4-1.4c0.1-0.4,0.2-0.9,0.2-1.3c0-2.7,0-5.4,0-8.2C106.3,68.5,106.2,68.4,106.2,68.2z"/>
		<path fill="#FFFFFF" d="M155.3,79.9c0,0.2,0.1,0.3,0,0.4c0,0.1-0.1,0.2-0.2,0.3c-0.1,0.1-0.2,0-0.4,0c-2.3,0-4.6,0-6.9,0
			c-0.1,0-0.2,0-0.3,0c-0.2-0.2-0.2-0.4-0.1-0.6c0.1,0,0.1-0.1,0.2-0.1c0.4-0.1,0.8-0.1,1.2-0.2c0.5-0.1,0.8-0.5,0.9-0.9
			c0.1-0.3,0.2-0.7,0.2-1c0-0.4,0-0.8,0-1.2c0-2.4,0-4.9,0-7.3c0-0.1,0-0.2,0-0.3c0.1-0.6-0.2-1.1-0.8-1.5c-0.2-0.1-0.3-0.2-0.5-0.3
			c-0.2-0.2-0.2-0.5,0-0.7c0.1-0.1,0.1-0.1,0.2-0.2c0.8-0.5,1.6-1,2.5-1.4c0.2-0.1,0.5-0.2,0.7-0.2c0.3-0.1,0.5,0.1,0.6,0.5
			c0,0.2,0,0.5,0,0.7c0,0.2,0,0.4,0.1,0.7c0.2-0.1,0.4-0.2,0.6-0.3c1.1-0.6,2.2-1.1,3.4-1.3c1.1-0.2,2.1-0.1,3.1,0.2
			c2,0.5,3,1.9,3.4,3.9c0.1,0.7,0.2,1.3,0.1,2c0,2.1,0,4.2,0,6.3c0,0.4,0.1,0.9,0.2,1.3c0.1,0.8,0.7,1.2,1.4,1.3
			c0.2,0,0.4,0,0.5,0.1c0.2,0.2,0.2,0.4,0.1,0.6c-0.1,0-0.2,0.1-0.2,0.1c-1.3,0.1-6.4,0-7-0.1c-0.2-0.2-0.2-0.4,0-0.6
			c0.1,0,0.1-0.1,0.2-0.1c0.2,0,0.4,0,0.6-0.1c0.6-0.1,1-0.5,1.2-1.1c0.1-0.3,0.1-0.6,0.2-0.9c0-0.4,0-0.7,0-1.1c0-1.9,0-3.8,0-5.7
			c0-0.6,0-1.3-0.2-1.9c-0.5-1.7-1.6-2.6-3.4-2.7c-1.6-0.1-2.8,0.6-3.8,1.7c-0.1,0.1-0.2,0.3-0.2,0.5c0,0.2,0,0.4,0,0.6
			c0,2.4,0,4.9,0,7.3c0,0.5,0,0.9,0,1.4c0,0.2,0.1,0.5,0.1,0.7c0.2,0.8,0.7,1.3,1.5,1.3C154.9,79.9,155.1,79.9,155.3,79.9z"/>
		<path fill="#FFFFFF" d="M133.8,68.2c0,0.3,0,0.4,0,0.6c0,2.8,0,5.6,0,8.4c0,0.5,0.1,1,0.2,1.5c0.2,0.7,0.6,1.1,1.3,1.2
			c0.2,0,0.5,0.1,0.7,0.1c0.2,0.2,0.2,0.4,0.1,0.6c-0.1,0-0.2,0.1-0.3,0.1c-2.3,0-4.6,0-6.9,0c-0.1,0-0.3,0-0.4,0
			c-0.2-0.1-0.2-0.2-0.2-0.4c0-0.1,0.1-0.3,0.2-0.3c0.2,0,0.4,0,0.6-0.1c0.9-0.1,1.5-0.4,1.7-1.7c0.1-0.6,0.1-1.3,0.1-1.9
			c0-2.3,0-4.6,0-6.8c0-0.2,0-0.3,0-0.5c0-0.6-0.2-1.1-0.8-1.5c-0.2-0.1-0.3-0.2-0.5-0.3c-0.2-0.2-0.2-0.5,0-0.7
			c0.1-0.1,0.2-0.2,0.3-0.2c0.7-0.4,1.5-0.9,2.2-1.3c0.2-0.1,0.4-0.2,0.7-0.3c0.5-0.1,0.7,0.1,0.8,0.5c0,0.3,0,0.6,0,0.9
			c0,0.1,0,0.2,0.1,0.4c0.3-0.1,0.5-0.2,0.7-0.4c1.1-0.7,2.2-1.1,3.4-1.3c1.1-0.1,2.1-0.1,3.1,0.2c1.8,0.5,2.9,1.7,3.2,3.6
			c0.1,0.6,0.2,1.2,0.2,1.8c0,2.2,0,4.4,0,6.6c0,0.5,0.1,1,0.2,1.5c0.2,0.8,0.6,1.2,1.4,1.3c0.2,0,0.4,0,0.7,0.1
			c0,0.1,0.1,0.3,0,0.4c0,0.1-0.1,0.2-0.2,0.2c-0.1,0-0.2,0-0.4,0c-2.2,0-4.3,0-6.5,0c-0.1,0-0.2,0-0.3,0c-0.2-0.2-0.2-0.4-0.1-0.6
			c0.1,0,0.1-0.1,0.2-0.1c0.2,0,0.4,0,0.6-0.1c0.6-0.1,1.1-0.5,1.2-1.1c0.2-0.7,0.2-1.3,0.3-2c0-1.9,0-3.7,0-5.6
			c0-0.8-0.1-1.6-0.3-2.4c-0.4-1.3-1.5-2.3-3.1-2.5c-1.4-0.1-2.5,0.3-3.5,1.2C134.2,67.8,134,68,133.8,68.2z"/>
		<path fill="#FFFFFF" d="M204.9,65.9c0-0.3,0-0.4,0-0.6c0.2,0,0.3-0.1,0.4-0.1c2.1,0,4.2,0,6.3,0c0.1,0,0.2,0,0.3,0
			c0.1,0.1,0.2,0.1,0.2,0.2c0.1,0.1,0,0.3-0.1,0.4c-0.1,0-0.2,0.1-0.3,0.1c-0.1,0-0.2,0-0.4,0c-0.7,0.1-1.3,0.6-1.1,1.6
			c0.1,0.5,0.2,0.9,0.4,1.3c0.5,1.2,1,2.5,1.5,3.7c0.6,1.6,1.3,3.2,1.7,4.9c0.2-0.1,0.2-0.3,0.3-0.4c0.8-2.4,1.6-4.7,2.3-7.1
			c0.2-0.7,0.4-1.4,0.6-2c0-0.2,0.1-0.4,0.1-0.5c0-0.5-0.2-1-0.8-1.2c-0.3-0.1-0.5-0.2-0.8-0.3c-0.2-0.1-0.2-0.2-0.2-0.4
			c0-0.1,0-0.2,0.2-0.3c0.1,0,0.2,0,0.3,0c1.4,0,2.8,0,4.2,0c0.1,0,0.2,0,0.3,0.1c0.2,0.5,0.2,0.6-0.2,0.8c-0.5,0.3-0.9,0.8-1.1,1.3
			c-0.3,0.6-0.6,1.3-0.8,2c-2,5.4-4,10.9-6.1,16.3c-0.3,0.8-0.7,1.5-1.1,2.3c-0.3,0.6-0.7,1.1-1.2,1.5c-0.6,0.6-1.4,0.7-2.2,0.6
			c-0.5-0.1-1-0.6-1.1-1.1c-0.1-0.6,0.1-1.1,0.6-1.4c0.5-0.3,1.1-0.5,1.7-0.6c0.2-0.1,0.5-0.1,0.7-0.2c0.6-0.1,1-0.5,1.2-1
			c0.2-0.5,0.4-1,0.6-1.4c0.3-0.8,0.5-1.6,0.8-2.4c0.2-0.5,0.1-0.9-0.1-1.3c-1-2.5-2.1-5-3.1-7.5c-0.6-1.6-1.3-3.1-1.9-4.7
			c-0.1-0.1-0.1-0.3-0.2-0.4C206.5,66.9,205.9,66.2,204.9,65.9z"/>
		<path fill="#FFFFFF" d="M40.2,80.9c-2.6,0-4.5-0.7-6.1-2.3c-1.3-1.3-2-2.9-2.2-4.7c-0.1-1.1-0.1-2.2,0.2-3.2
			c0.7-2.4,2.2-4.2,4.6-5.1c3.1-1.2,5.9-0.8,8.5,1.2c1.4,1.1,2.2,2.5,2.6,4.2c0.3,1.4,0.3,2.8-0.1,4.2c-0.8,2.9-2.8,4.6-5.6,5.5
			C41.3,80.8,40.6,80.9,40.2,80.9z M44.8,72.6c0-0.5-0.1-1.3-0.2-2.1c-0.1-0.9-0.4-1.9-0.9-2.7c-0.5-0.9-1.3-1.5-2.3-1.8
			c-0.9-0.3-1.8-0.3-2.7-0.1c-1,0.2-1.8,0.8-2.4,1.6c-0.3,0.5-0.6,1-0.7,1.6c-0.4,1.2-0.5,2.4-0.5,3.6c0,0.9,0.1,1.8,0.2,2.7
			c0.2,1,0.4,2,1,2.8c0.6,0.8,1.3,1.4,2.3,1.7c0.7,0.2,1.3,0.2,2,0.1c1.5-0.2,2.6-1,3.3-2.4c0.2-0.5,0.4-1,0.5-1.5
			C44.6,75.1,44.7,74,44.8,72.6z"/>
		<path fill="#FFFFFF" d="M126.9,77.6c0.2,0.2,0.3,0.4,0.4,0.5c0,0.1,0,0.1,0,0.1c-1.2,1.1-2.5,2-4.1,2.4c-2.6,0.6-5,0.1-7-1.7
			c-1.5-1.4-2.4-3.2-2.5-5.2c-0.1-3.4,1.1-6.2,4.2-7.9c2-1.1,4.1-1.3,6.1-0.3c1.6,0.7,2.7,1.9,3.2,3.6c0.1,0.4,0.2,0.7,0.1,1.1
			c-0.3,0.2-0.6,0.2-0.9,0.2c-2.7,0-5.5,0-8.2,0c-0.3,0-0.6,0-0.8,0c-0.2,0-0.3,0-0.5,0.1c-0.1,0.2-0.2,0.5-0.2,0.7
			c-0.1,1.2-0.2,2.5,0.2,3.7c0.4,1.3,1,2.4,2,3.2c1.9,1.5,3.9,1.6,6,0.7C125.4,78.4,126.1,78,126.9,77.6z M124.4,69.2
			c-0.1-0.5-0.2-0.8-0.3-1.2c-0.9-2.3-3.6-3-5.5-1.4c-0.7,0.6-1.2,1.4-1.5,2.3c0,0.1,0,0.2,0,0.4c0.1,0,0.2,0.1,0.4,0.1
			C118.9,69.4,123.7,69.3,124.4,69.2z"/>
		<path fill="#FFFFFF" d="M62.7,70.2c-0.8,0.2-1.5,0.1-2.1,0.1c-0.7,0-1.4,0-2.1,0c-0.7,0-1.4,0-2,0c-0.7,0-1.4,0-2.1,0
			c-0.7,0-1.4,0-2,0c-0.1,0.1-0.2,0.2-0.2,0.4c-0.4,2-0.3,3.9,0.8,5.7c0.9,1.5,2.2,2.5,3.9,2.8c1.4,0.2,2.6-0.1,3.8-0.7
			c0.6-0.3,1.1-0.6,1.6-0.9c0.3,0.1,0.4,0.3,0.5,0.7c-1.4,1.2-2.8,2.2-4.6,2.5c-3.1,0.5-5.8-0.4-7.7-3.2c-1.2-1.7-1.6-3.6-1.2-5.6
			c0.2-1.3,0.6-2.5,1.3-3.6c1.5-2.3,3.7-3.5,6.4-3.4c2.2,0,4,1.1,5.2,3c0.4,0.6,0.5,1.2,0.6,1.8C62.8,69.9,62.7,70,62.7,70.2z
			 M59.8,69.2c0-0.1,0-0.3,0-0.4c-0.3-2.6-3.2-4-5.4-2.5c-1.1,0.7-1.6,1.7-2,2.9c0.7,0.1,5.5,0.2,7,0.1
			C59.5,69.3,59.7,69.3,59.8,69.2z"/>
		<path fill="#FFFFFF" d="M180,77.6c0.1,0.1,0.2,0.1,0.3,0.2c0.1,0.1,0.2,0.2,0.3,0.3c0,0.1,0,0.1,0,0.1c-1.2,1.1-2.5,2-4.1,2.4
			c-2.4,0.6-4.7,0.2-6.6-1.3c-1.5-1.2-2.4-2.7-2.8-4.6c-0.3-1.6-0.2-3.1,0.4-4.6c0.8-2.2,2.3-3.9,4.5-4.7c1.5-0.6,3.1-0.7,4.7-0.1
			c1.7,0.6,3,1.8,3.7,3.5c0.2,0.4,0.3,0.9,0.2,1.3c-0.2,0.2-0.4,0.2-0.6,0.2c-1.4,0-2.7,0-4.1,0c-1.6,0-3.2,0-4.8,0
			c-0.3,0-0.6,0-0.9,0c-0.3,0.2-0.3,0.5-0.3,0.8c-0.2,1.7-0.1,3.5,0.7,5c1,2,2.7,3,4.9,3.1c0.9,0,1.8-0.2,2.6-0.6
			c0.5-0.2,1-0.5,1.5-0.8C179.6,77.8,179.8,77.7,180,77.6z M170.3,69.3c0.1,0,0.2,0.1,0.3,0.1c2.2,0,4.4,0,6.6,0
			c0.1,0,0.2-0.1,0.3-0.1c0-0.5-0.1-0.9-0.3-1.3c-0.9-2.1-3.2-2.8-5.1-1.6c-0.8,0.5-1.3,1.3-1.7,2.1
			C170.3,68.7,170.2,68.9,170.3,69.3z"/>
		<path fill="#FFFFFF" d="M191,65.6c0,0.8,0.1,1.6,0.1,2.3c0,0.2,0,0.4,0,0.6c0,0.2-0.3,0.3-0.5,0.2c-0.1-0.1-0.2-0.2-0.3-0.4
			c-0.2-0.3-0.4-0.7-0.7-1c-0.3-0.4-0.7-0.7-1.1-1c-0.6-0.4-1.3-0.5-2-0.4c-0.7,0.1-1.4,0.8-1.5,1.6c-0.2,1.1,0.1,2.1,1,2.8
			c0.5,0.4,1,0.7,1.5,0.9c0.7,0.4,1.4,0.7,2,1.1c0.6,0.3,1.1,0.7,1.5,1.2c1.1,1.1,1.4,2.5,0.8,3.9c-0.8,2.1-2.4,3.2-4.6,3.5
			c-1.4,0.2-2.8-0.1-4-0.7c-0.3-0.2-0.6-0.4-0.9-0.6c-0.3-0.3-0.5-0.6-0.4-1.1c0.1-0.5,0.2-1.1,0.3-1.6c0-0.1,0.1-0.3,0.2-0.4
			c0.1-0.1,0.3-0.2,0.4-0.1c0.1,0.1,0.2,0.3,0.3,0.4c0.2,0.4,0.4,0.8,0.6,1.3c0.2,0.4,0.5,0.9,0.9,1.2c0.8,0.7,1.6,1,2.7,0.8
			c2.4-0.5,2.6-3.1,1.6-4.5c-0.3-0.4-0.7-0.8-1.2-1c-0.7-0.4-1.3-0.8-2-1.2c-0.5-0.3-0.9-0.5-1.4-0.8c-0.5-0.3-1-0.7-1.3-1.2
			c-0.7-0.9-1-2-0.7-3.1c0.4-1.3,1.2-2.2,2.5-2.8c1.1-0.5,2.2-0.6,3.3-0.5c0.7,0.1,1.5,0.2,2.2,0.4C190.6,65.3,190.8,65.5,191,65.6z
			"/>
		<path fill="#FFFFFF" d="M202.8,65.5c0,0.3,0,0.5,0.1,0.7c0,0.6,0.1,1.1,0.1,1.7c0,0.2,0,0.4,0,0.5c0,0.1-0.1,0.2-0.2,0.3
			c-0.1,0-0.3,0-0.3-0.1c-0.1-0.1-0.2-0.3-0.3-0.4c-0.2-0.4-0.5-0.7-0.7-1.1c-0.3-0.4-0.6-0.7-1-0.9c-0.6-0.4-1.3-0.5-2-0.3
			c-0.7,0.2-1.2,0.6-1.4,1.3c-0.3,1-0.1,2,0.7,2.7c0.4,0.4,0.9,0.7,1.3,1c0.5,0.3,1,0.5,1.5,0.8c0.5,0.3,1,0.6,1.5,0.9
			c0.3,0.2,0.6,0.5,0.9,0.8c1.1,1.1,1.3,2.4,0.9,3.8c-0.6,2-2.5,3.4-4.5,3.6c-1.5,0.1-2.9,0-4.2-0.7c-0.3-0.2-0.7-0.4-1-0.7
			c-0.3-0.3-0.4-0.6-0.3-1c0.1-0.5,0.2-1.1,0.3-1.6c0-0.1,0.1-0.2,0.1-0.3c0.1-0.2,0.4-0.2,0.5,0c0.2,0.3,0.3,0.5,0.4,0.8
			c0.2,0.5,0.5,1.1,0.8,1.5c0.6,0.8,1.4,1.3,2.3,1.3c1.1,0,1.9-0.4,2.5-1.3c0.6-1,0.5-1.9,0-2.9c-0.2-0.4-0.6-0.8-1-1.1
			c-0.5-0.3-1-0.7-1.6-1c-0.7-0.4-1.4-0.8-2.1-1.2c-0.4-0.3-0.8-0.6-1.2-0.9c-1.3-1.2-1.3-3.1-0.5-4.4c0.6-0.9,1.4-1.6,2.4-1.9
			c0.9-0.3,1.8-0.5,2.7-0.4C200.8,65,201.8,65.1,202.8,65.5z"/>
		<path fill="#FFFFFF" d="M68.9,65.2c1.7,0.1,3.2,0,4.8,0.1c0,0.2,0.1,0.4,0.1,0.6c0,0.2,0,0.4,0,0.5c-0.2,0.2-0.4,0.2-0.5,0.2
			c-0.7,0-1.4,0-2,0c-0.4,0-0.8,0.1-1.2,0.1c-0.5,0.1-0.8,0.4-1,0.9c-0.1,0.4-0.2,0.7-0.2,1.1c0,0.5,0,0.9,0,1.4c0,2.2,0,4.3,0,6.5
			c0,0.2,0,0.4,0,0.6c0,1.2,0.7,2.2,2.2,2.3c0.5,0,1,0,1.6-0.1c0.5,0,0.9-0.1,1.4-0.2c0,0,0.1,0,0.1,0c0.2,0.2,0.1,0.4,0,0.7
			c-0.8,0.4-1.7,0.7-2.7,0.8c-0.7,0.1-1.4,0.1-2.1,0c-1.9-0.1-3.1-1.5-3.2-3.3c0-0.3,0-0.6,0-0.9c0-2.8,0-5.6,0-8.3
			c0-0.4-0.1-0.8-0.1-1.2c0-0.3-0.2-0.5-0.5-0.6c-0.2,0-0.4-0.1-0.6-0.2c-0.1,0-0.3-0.1-0.4-0.2c-0.1-0.1-0.1-0.2-0.1-0.3
			c0.1-0.2,0.2-0.3,0.3-0.5c1-1,2-2.1,3-3.1c0.1-0.2,0.3-0.3,0.5-0.4c0.3-0.2,0.6,0,0.7,0.3c0,0.2,0.1,0.4,0.1,0.5
			c0,0.6,0,1.3,0,1.9C68.9,64.8,68.9,65,68.9,65.2z"/>
		<path fill="#FFFFFF" d="M55,59.9c0,1-0.9,1.9-1.9,1.9c-1,0-2-0.9-2-1.9c0-1.1,0.8-1.9,1.9-1.9C54,58,54.9,58.9,55,59.9z"/>
		<path fill="#FFFFFF" d="M62,60c-0.1,1.2-0.9,1.9-2,1.9c-1,0-1.9-0.9-1.8-1.9c0-1,0.9-1.9,1.9-1.9C61.3,58.1,62,59,62,60z"/>
	</g>
</g>
<g>
</g>
<g>
</g>
<g>
</g>
<g>
</g>
<g>
</g>
<g>
</g>
</svg>
